<svg xmlns="http://www.w3.org/2000/svg" version="1.1" xmlns:xlink="http://www.w3.org/1999/xlink" xmlns:svgjs="http://svgjs.dev/svgjs" viewBox="0 0 800 800"><defs><linearGradient x1="50%" y1="0%" x2="50%" y2="100%" id="ccchaos-grad"><stop stop-color="hsl(265, 55%, 30%)" stop-opacity="1" offset="0%"></stop><stop stop-color="hsl(265, 55%, 60%)" stop-opacity="1" offset="100%"></stop></linearGradient></defs><g stroke-width="2" stroke="url(#ccchaos-grad)" fill="none" stroke-linecap="round"><path d="M418.03 100.4C428.33 101.54 438.75 103.65 449.26 106.63 459.77 109.96 470.33 113.98 480.86 118.57 491.32 123.23 501.63 128.27 511.67 133.59 521.46 138.71 530.77 143.96 539.43 149.27 547.6 154.21 554.88 159.15 561.08 164.06 568.74 170.77 576.99 183.62 578.04 189.95 578.49 196.01 581.32 209.04 586.4 216.24 592.44 221.11 600.5 226.38 610.66 232.04 622.86 237.74 636.58 243.87 651.18 250.41 665.95 257.02 679.87 264.03 691.89 271.43 701.36 278.89 707.3 286.71 709.14 294.85 707.31 303.04 701.6 311.52 692.69 320.25 682.35 329.01 671.27 338 660.91 347.17 653.29 356.36 648.91 365.72 648.54 375.22 652.77 384.73 660.49 394.16 670.56 403.5 682.23 412.85 693.35 422.13 702.49 431.35 709.15 440.61 711.84 449.85 710.28 459.07 704.96 468.39 695.87 477.75 683.86 487.17 670.07 496.74 655.33 506.44 640.67 516.25 627.04 526.27 615.02 536.45 605.02 546.78 597.44 557.31 592.05 567.97 588.56 578.71 587.04 589.56 586.62 600.39 586.73 611.1 587.53 621.72 587.94 632.03 587.58 641.88 586.82 651.33 584.79 660.08 581.42 667.94 577.21 675.09 571.65 681.11 564.86 685.86 557.33 689.67 548.81 692.09 539.54 693.07 529.81 693.11 519.59 691.81 509.07 689.23 498.35 686.08 487.52 681.98 476.7 677.16 465.84 672.42 455.07 667.45 444.47 662.52 433.89 658.41 423.49 654.83 413.3 651.97 403.11 650.48 393.36 649.94 384 650.31 374.6 652 365.55 654.36 356.8 657.21 347.95 660.86 339.32 664.56 330.86 668.07 322.2 671.7 313.61 674.69 305.03 676.84 296.17 678.55 287.23 679.12 278.19 678.49 268.82 677.09 259.32 674.39 249.71 670.45 239.88 665.69 230.05 659.78 220.3 652.83 210.61 645.23 201.24 636.78 192.36 627.64 183.9 618.09 176.18 608.05 169.36 597.66 163.21 587.11 158.06 576.35 153.95 565.5 150.42 554.65 147.75 543.79 145.82 532.99 143.98 522.28 142.47 511.65 141.09 501.14 139.2 490.73 137.08 480.43 134.66 470.24 131.45 460.14 127.93 450.13 124.23 440.21 120.1 430.34 116.2 420.53 112.81 410.79 109.77 401.07 107.74 391.4 106.95 381.8 107.01 372.2 108.4 362.88 110.97 353.86 114.08 344.83 117.95 336.11 122.28 327.7 126.4 319.3 130.51 311.22 134.42 303.49 137.58 295.77 140.41 288.4 142.92 281.4 144.75 274.4 146.54 267.75 148.44 261.47 150.21 255.15 152.51 249.17 155.51 243.52 158.94 237.77 163.32 232.29 168.68 227.06 174.72 221.66 181.73 216.42 189.58 211.34 197.98 205.98 207.02 200.69 216.53 195.45 226.27 189.86 236.25 184.27 246.35 178.66 256.36 172.69 266.35 166.7 276.25 160.73 285.92 154.46 295.49 148.27 304.96 142.25 314.18 136.08 323.37 130.21 332.57 124.73 341.58 119.36 350.69 114.55 359.95 110.43 369.11 106.66 378.49 103.73 388.15 101.73 397.77 100.26 407.72 99.8 418.02 100.4" stroke-dasharray="9 2" transform="rotate(0, 400, 400)" opacity="0.05"></path><path d="M421.81 111C431.79 112.13 441.76 114.17 451.66 117.06 461.53 120.28 471.3 124.18 480.86 128.64 490.32 133.19 499.46 138.13 508.16 143.36 516.6 148.43 524.43 153.65 531.5 158.96 538.14 163.94 543.86 168.94 548.57 173.92 554.35 180.79 560.56 193.96 561.8 200.4 563.45 206.53 570.91 219.42 578.86 226.4 586.66 231.07 596.24 236.09 607.54 241.46 620.33 246.83 634.08 252.59 648.13 258.72 661.82 264.89 674.24 271.45 684.49 278.37 692.13 285.33 696.36 292.64 696.78 300.28 693.97 307.96 687.79 315.94 678.93 324.19 669.04 332.46 658.69 340.98 649.19 349.73 642.29 358.48 638.39 367.44 638.12 376.6 642.05 385.76 649.16 394.9 658.46 404.01 669.36 413.13 679.95 422.24 688.95 431.34 695.92 440.48 699.44 449.64 699.15 458.82 695.42 468.1 688.08 477.45 677.77 486.87 665.45 496.43 651.76 506.11 637.64 515.9 623.97 525.85 611.33 535.93 600.22 546.11 591.08 556.43 583.88 566.81 578.5 577.2 575.08 587.62 572.97 597.94 571.73 608.04 571.49 617.99 571.34 627.55 570.88 636.59 570.44 645.19 569.13 653.06 566.81 660.02 563.96 666.29 559.92 671.48 554.77 675.45 548.99 678.56 542.21 680.39 534.56 680.89 526.47 680.6 517.74 679.08 508.52 676.44 499.07 673.33 489.31 669.4 479.39 664.84 469.38 660.4 459.31 655.78 449.25 651.19 439.18 647.39 429.16 644.06 419.23 641.36 409.3 639.92 399.68 639.32 390.35 639.54 380.99 640.97 371.86 643.01 362.94 645.51 353.92 648.78 345.03 652.12 336.23 655.33 327.25 658.72 318.28 661.58 309.27 663.73 300.04 665.54 290.72 666.37 281.31 666.12 271.69 665.23 262 663.16 252.28 659.95 242.51 656 232.85 650.96 223.41 644.92 214.19 638.26 205.41 630.74 197.23 622.51 189.57 613.85 182.71 604.65 176.77 595.03 171.48 585.19 167.15 575.08 163.77 564.81 160.85 554.48 158.67 544.07 157.07 533.67 155.44 523.29 154.01 512.96 152.6 502.71 150.6 492.53 148.33 482.44 145.72 472.45 142.33 462.53 138.65 452.71 134.82 442.99 130.61 433.32 126.66 423.73 123.25 414.24 120.21 404.76 118.18 395.37 117.36 386.07 117.42 376.78 118.78 367.79 121.3 359.12 124.41 350.45 128.28 342.09 132.64 334.06 136.86 326.02 141.1 318.31 145.17 310.94 148.54 303.56 151.57 296.52 154.25 289.82 156.22 283.1 158.05 276.71 159.88 270.65 161.45 264.53 163.41 258.7 165.92 253.16 168.72 247.49 172.36 242.05 176.88 236.82 182.01 231.39 188.09 226.1 195.04 220.93 202.57 215.48 210.83 210.08 219.68 204.71 228.87 199.02 238.44 193.31 248.24 187.61 258.12 181.58 268.09 175.55 278.06 169.56 287.92 163.32 297.72 157.2 307.45 151.25 317.01 145.22 326.51 139.5 335.98 134.18 345.3 129 354.65 124.39 364.06 120.44 373.39 116.85 382.84 114.07 392.45 112.19 402.03 110.81 411.81 110.41 421.8 111" stroke-dasharray="3 8" transform="rotate(4.04, 400, 400)" opacity="0.09"></path><path d="M422.26 121.61C431.86 122.71 441.28 124.69 450.49 127.47 459.67 130.59 468.58 134.36 477.14 138.68 485.59 143.11 493.58 147.93 501.02 153.05 508.22 158.06 514.74 163.23 520.49 168.51 525.91 173.51 530.47 178.55 534.15 183.58 538.84 190.6 544.74 204.08 546.98 210.65 549.1 214.76 551.68 219 555.03 223.38 559.8 227.56 565.84 231.96 573.36 236.61 582.58 241.14 593.26 245.98 605.22 251.13 618.15 256.24 631.51 261.69 644.66 267.49 657.03 273.3 667.82 279.46 676.28 285.97 682.17 292.5 684.82 299.37 684 306.57 680.39 313.78 673.9 321.31 665.19 329.12 655.81 336.94 646.22 345.04 637.54 353.39 631.34 361.73 627.88 370.33 627.71 379.16 631.34 387.99 637.86 396.85 646.42 405.72 656.57 414.6 666.59 423.52 675.37 432.47 682.52 441.46 686.72 450.5 687.53 459.6 685.27 468.78 679.59 478.04 670.98 487.39 660.24 496.85 647.83 506.42 634.57 516.08 621.25 525.85 608.42 535.71 596.63 545.63 586.33 555.61 577.64 565.61 570.57 575.53 565.32 585.42 561.44 595.13 558.64 604.56 557.03 613.77 555.87 622.55 554.78 630.74 554.06 638.49 552.88 645.48 551.03 651.58 547.45 659.21 534.93 667.8 526.06 668.56 519.47 667.97 512.16 666.31 504.24 663.64 496.08 660.61 487.48 656.86 478.54 652.57 469.5 648.43 460.23 644.14 450.81 639.9 441.37 636.39 431.83 633.29 422.23 630.75 412.64 629.36 403.2 628.71 393.94 628.8 384.65 629.98 375.48 631.72 366.41 633.88 357.27 636.78 348.18 639.77 339.1 642.67 329.89 645.81 320.65 648.5 311.35 650.6 301.91 652.46 292.4 653.47 282.85 653.54 273.2 653.07 263.57 651.55 254.03 648.97 244.56 645.77 235.33 641.53 226.45 636.34 217.9 630.57 209.89 623.97 202.58 616.63 195.81 608.87 189.87 600.53 184.84 591.73 180.4 582.67 176.83 573.28 174.1 563.66 171.71 553.94 169.91 544.08 168.55 534.16 167.03 524.23 165.6 514.3 164.09 504.41 161.93 494.55 159.47 484.75 156.65 475.05 153.09 465.38 149.26 455.81 145.31 446.35 141.05 436.92 137.07 427.58 133.65 418.35 130.62 409.15 128.6 400.04 127.78 391.05 127.81 382.05 129.14 373.38 131.61 365.04 134.68 356.69 138.53 348.65 142.9 340.95 147.19 333.23 151.54 325.83 155.77 318.76 159.35 311.67 162.6 304.89 165.49 298.44 167.65 291.94 169.59 285.74 171.44 279.84 172.93 273.85 174.66 268.12 176.79 262.63 179.07 257 182.05 251.56 185.79 246.29 190.05 240.81 195.2 235.44 201.19 230.17 207.76 224.62 215.11 219.11 223.1 213.63 231.53 207.85 240.45 202.06 249.71 196.28 259.18 190.22 268.85 184.18 278.62 178.21 288.41 172.03 298.2 165.99 307.97 160.16 317.66 154.28 327.3 148.73 336.88 143.6 346.38 138.62 355.86 134.2 365.32 130.45 374.73 127.04 384.17 124.41 393.65 122.65 403.11 121.37 412.65 121.01 422.25 121.61" stroke-dasharray="10 6" transform="rotate(8.08, 400, 400)" opacity="0.13"></path><path d="M419.32 132.22C428.46 133.29 437.29 135.2 445.79 137.88 454.25 140.88 462.32 144.51 469.94 148.69 477.45 152.98 484.43 157.68 490.8 162.68 496.99 167.59 502.51 172.7 507.3 177.93 511.89 182.93 515.76 187.98 518.93 193.05 523.31 200.18 530.41 213.95 534.22 220.67 537.67 224.87 541.78 229.17 546.8 233.59 553.17 237.8 560.76 242.18 569.65 246.77 579.88 251.23 591.21 255.94 603.36 260.93 616 265.84 628.61 271.06 640.58 276.6 651.46 282.11 660.54 287.95 667.24 294.12 671.48 300.28 672.72 306.77 670.85 313.58 666.62 320.39 659.95 327.51 651.5 334.93 642.68 342.35 633.84 350.05 625.96 358.03 620.42 366.01 617.38 374.25 617.29 382.76 620.65 391.27 626.61 399.84 634.46 408.47 643.85 417.11 653.28 425.81 661.75 434.58 668.98 443.37 673.7 452.25 675.45 461.2 674.5 470.22 670.39 479.32 663.45 488.51 654.35 497.77 643.37 507.13 631.22 516.55 618.6 526.04 606 535.58 593.95 545.12 582.92 554.68 573.11 564.18 564.67 573.55 557.79 582.82 552.23 591.86 547.81 600.55 544.65 608.99 542.17 616.95 540.08 624.29 537.8 634.26 531.96 649.09 527.47 653.53 521.85 655.88 506.21 654.37 496.41 650.83 489.45 647.91 481.95 644.36 473.99 640.34 465.92 636.51 457.49 632.55 448.77 628.63 440.02 625.4 431.04 622.53 421.85 620.14 412.66 618.8 403.49 618.12 394.37 618.07 385.24 619.03 376.12 620.49 367.01 622.33 357.87 624.87 348.69 627.52 339.49 630.11 330.22 632.97 320.89 635.48 311.52 637.48 302.09 639.34 292.63 640.46 283.2 640.76 273.8 640.64 264.5 639.57 255.39 637.56 246.48 635 237.91 631.49 229.79 627.09 222.09 622.17 214.99 616.43 208.63 609.97 202.81 603.09 197.8 595.62 193.65 587.65 190 579.41 187.12 570.79 184.94 561.88 182.97 552.84 181.44 543.61 180.21 534.26 178.71 524.86 177.19 515.41 175.51 505.96 173.16 496.52 170.48 487.1 167.44 477.74 163.7 468.41 159.74 459.15 155.7 449.99 151.4 440.86 147.42 431.81 144.01 422.88 141.02 413.97 139.02 405.15 138.19 396.47 138.21 387.78 139.49 379.41 141.89 371.37 144.91 363.32 148.71 355.58 153.06 348.16 157.39 340.72 161.83 333.58 166.2 326.76 169.98 319.91 173.46 313.35 176.59 307.08 178.99 300.75 181.11 294.69 183.07 288.88 184.58 282.98 186.19 277.3 188.07 271.82 189.95 266.2 192.38 260.73 195.46 255.39 198.92 249.85 203.17 244.4 208.22 239.02 213.8 233.39 220.15 227.78 227.18 222.2 234.69 216.35 242.75 210.5 251.26 204.68 260.07 198.62 269.17 192.6 278.48 186.68 287.9 180.59 297.43 174.67 306.97 168.98 316.54 163.28 326.09 157.92 335.58 152.99 345.05 148.22 354.48 144.01 363.84 140.45 373.18 137.23 382.48 134.76 391.73 133.11 400.97 131.92 410.17 131.62 419.31 132.22" stroke-dasharray="4 2" transform="rotate(12.12, 400, 400)" opacity="0.16"></path><path d="M413.44 142.83C422.06 143.87 430.29 145.71 438.11 148.28 445.89 151.16 453.21 154.65 460.03 158.67 466.76 162.82 472.94 167.37 478.53 172.23 484.01 177.04 488.87 182.06 493.13 187.22 497.31 192.19 500.94 197.23 504.1 202.31 508.86 209.52 518.31 223.55 524.02 230.39 528.87 234.7 534.48 239.08 541.03 243.55 548.75 247.81 557.55 252.21 567.38 256.78 578.18 261.21 589.7 265.85 601.61 270.72 613.57 275.5 625.12 280.55 635.69 285.88 644.97 291.17 652.35 296.75 657.37 302.63 660.1 308.49 660.1 314.67 657.38 321.14 652.69 327.61 645.99 334.38 637.88 341.44 629.66 348.5 621.58 355.85 614.47 363.49 609.54 371.12 606.89 379.03 606.88 387.22 609.97 395.42 615.4 403.71 622.56 412.07 631.22 420.44 640.03 428.91 648.14 437.45 655.34 446.01 660.42 454.67 662.96 463.41 663.15 472.19 660.47 481.06 655.12 489.99 647.66 498.98 638.22 508.03 627.37 517.11 615.74 526.22 603.73 535.34 591.84 544.41 580.52 553.44 570.03 562.37 560.58 571.1 552.38 579.7 545.36 588.01 539.42 595.93 534.7 603.58 530.79 610.71 527.45 617.22 523.67 625.95 516.59 638.54 512.32 642.07 507.42 643.73 494.13 641.56 485.71 638.04 479.74 635.24 473.18 631.91 466.11 628.16 458.94 624.63 451.32 620.99 443.3 617.39 435.25 614.42 426.85 611.77 418.13 609.54 409.42 608.25 400.61 607.53 391.74 607.37 382.87 608.12 373.93 609.32 364.94 610.86 355.94 613.06 346.87 615.37 337.75 617.65 328.62 620.23 319.44 622.52 310.25 624.39 301.09 626.2 291.95 627.37 282.92 627.84 274.01 627.98 265.3 627.29 256.88 625.76 248.73 623.77 241.01 620.91 233.82 617.22 227.06 613.06 220.95 608.13 215.57 602.5 210.7 596.49 206.58 589.86 203.24 582.73 200.28 575.31 197.96 567.49 196.22 559.34 194.53 551.03 193.16 542.48 191.96 533.76 190.38 524.97 188.7 516.08 186.81 507.14 184.23 498.18 181.32 489.21 178.06 480.27 174.17 471.34 170.09 462.46 165.98 453.65 161.67 444.86 157.71 436.15 154.34 427.54 151.4 418.94 149.43 410.44 148.61 402.07 148.61 393.69 149.83 385.61 152.15 377.85 155.09 370.08 158.82 362.61 163.13 355.44 167.47 348.25 171.97 341.34 176.45 334.72 180.42 328.06 184.12 321.67 187.49 315.53 190.16 309.33 192.53 303.37 194.67 297.62 196.28 291.77 197.9 286.11 199.65 280.62 201.28 274.97 203.31 269.46 205.84 264.05 208.62 258.45 212.08 252.91 216.24 247.44 220.85 241.73 226.2 236.05 232.23 230.4 238.71 224.5 245.8 218.63 253.39 212.81 261.32 206.77 269.64 200.82 278.25 194.97 287.05 189.01 296.03 183.24 305.11 177.72 314.28 172.21 323.49 167.06 332.66 162.34 341.88 157.81 351.04 153.81 360.12 150.45 369.22 147.42 378.23 145.1 387.12 143.58 396.02 142.48 404.81 142.22 413.43 142.82" stroke-dasharray="4 10" transform="rotate(16.16, 400, 400)" opacity="0.20"></path><path d="M405.51 153.43C413.59 154.44 421.24 156.21 428.45 158.67 435.63 161.42 442.34 164.77 448.54 168.62 454.7 172.62 460.34 177.01 465.46 181.72 470.54 186.4 475.13 191.31 479.25 196.38 483.41 201.29 487.22 206.3 490.77 211.36 494.56 216.19 498.3 221.04 502.14 225.91 506.53 230.52 511.29 235.15 516.6 239.8 522.76 244.2 529.69 248.67 537.48 253.2 546.22 257.53 555.81 261.97 566.13 266.55 577.06 270.98 588.32 275.59 599.59 280.39 610.57 285.09 620.82 290.03 629.87 295.2 637.51 300.32 643.23 305.7 646.68 311.35 648.07 316.97 647.03 322.88 643.63 329.07 638.65 335.25 632.04 341.71 624.35 348.46 616.75 355.2 609.41 362.23 603.04 369.55 598.7 376.85 596.4 384.45 596.46 392.33 599.3 400.21 604.23 408.2 610.73 416.28 618.67 424.37 626.85 432.56 634.54 440.82 641.6 449.11 646.92 457.5 650.08 465.95 651.25 474.43 649.85 482.98 645.98 491.58 640.12 500.21 632.26 508.87 622.85 517.52 612.43 526.17 601.31 534.78 589.95 543.29 578.76 551.74 568.02 560.02 557.98 568.07 548.85 575.95 540.68 583.5 533.46 590.63 527.31 597.47 521.99 603.79 517.34 609.49 511.77 617.05 502.4 627.58 497.71 630.3 492.85 631.39 480.7 628.71 473.21 625.26 467.93 622.62 462.11 619.5 455.75 616.04 449.33 612.8 442.41 609.47 435.05 606.17 427.65 603.46 419.85 601.01 411.65 598.93 403.46 597.69 395.09 596.95 386.59 596.68 378.11 597.25 369.5 598.2 360.8 599.46 352.12 601.34 343.36 603.32 334.55 605.3 325.78 607.59 317 609.64 308.25 611.36 299.59 613.07 291.04 614.25 282.66 614.82 274.47 615.15 266.55 614.75 259 613.61 251.78 612.1 245.03 609.8 238.84 606.74 233.09 603.28 227.97 599.1 223.55 594.24 219.55 589.04 216.24 583.23 213.58 576.91 211.19 570.32 209.3 563.29 207.85 555.91 206.33 548.35 204.99 540.52 203.71 532.48 201.99 524.35 200.1 516.07 197.95 507.7 195.12 499.29 191.97 490.83 188.51 482.37 184.47 473.9 180.3 465.44 176.15 457.04 171.86 448.64 167.95 440.3 164.64 432.04 161.77 423.79 159.84 415.62 159.02 407.56 159 399.49 160.16 391.72 162.39 384.23 165.23 376.73 168.87 369.51 173.1 362.56 177.41 355.59 181.94 348.88 186.5 342.43 190.64 335.93 194.55 329.67 198.17 323.64 201.12 317.54 203.77 311.63 206.14 305.92 207.96 300.1 209.69 294.44 211.44 288.92 212.95 283.25 214.72 277.68 216.86 272.21 219.11 266.55 221.91 260.95 225.31 255.4 229.04 249.64 233.44 243.91 238.48 238.22 243.93 232.32 249.98 226.46 256.56 220.67 263.5 214.71 270.87 208.84 278.6 203.11 286.57 197.31 294.79 191.71 303.18 186.38 311.71 181.1 320.34 176.18 328.98 171.68 337.7 167.38 346.4 163.61 355.03 160.45 363.69 157.61 372.26 155.46 380.69 154.05 389.13 153.05 397.42 152.83 405.5 153.43" stroke-dasharray="11 11" transform="rotate(20.200000000000003, 400, 400)" opacity="0.24"></path><path d="M396.74 164.04C404.27 165.02 411.4 166.71 418.11 169.05 424.8 171.68 431.05 174.87 436.86 178.55 442.66 182.38 448.02 186.6 452.98 191.14 457.95 195.68 462.58 200.45 466.9 205.41 471.36 210.24 475.65 215.18 479.87 220.2 484.41 225.02 489.07 229.89 493.99 234.79 499.47 239.45 505.42 244.14 511.93 248.85 519.19 253.34 527.14 257.88 535.79 262.48 545.14 266.88 555.07 271.37 565.43 275.98 576.05 280.43 586.68 285.04 596.98 289.8 606.74 294.46 615.53 299.32 622.99 304.38 631.09 311.99 634.51 328.36 629.67 337.16 624.55 343.08 618.14 349.28 610.92 355.75 603.96 362.21 597.35 368.95 591.69 375.96 587.9 382.96 585.93 390.25 586.05 397.82 588.65 405.39 593.1 413.07 598.97 420.84 606.21 428.62 613.76 436.49 620.99 444.45 627.82 452.41 633.25 460.46 636.87 468.56 638.84 476.68 638.55 484.85 636.03 493.04 631.68 501.24 625.38 509.43 617.47 517.58 608.42 525.69 598.44 533.73 587.92 541.62 577.25 549.42 566.67 557.01 556.46 564.33 546.84 571.47 537.9 578.25 529.72 584.6 522.42 590.66 515.86 596.19 509.99 601.11 502.58 607.58 490.33 616.24 484.74 618.27 479.37 618.87 467.26 615.85 460.21 612.52 455.33 610.04 449.97 607.16 444.13 603.97 438.26 601.02 431.91 597.99 425.12 594.98 418.3 592.51 411.05 590.26 403.4 588.32 395.74 587.14 387.88 586.37 379.86 586.02 371.86 586.42 363.73 587.14 355.5 588.14 347.31 589.71 339.05 591.38 330.77 593.06 322.57 595.06 314.4 596.87 306.32 598.4 298.38 599.98 290.6 601.12 283.07 601.74 275.77 602.19 268.79 602.02 262.24 601.19 253.14 599.15 238.23 591.13 232.59 585.22 229.37 580.76 226.71 575.73 224.61 570.18 222.63 564.38 221.03 558.14 219.72 551.52 218.24 544.73 216.83 537.63 215.38 530.29 213.45 522.84 211.29 515.21 208.86 507.46 205.79 499.64 202.41 491.74 198.76 483.8 194.61 475.84 190.38 467.85 186.22 459.89 181.98 451.93 178.14 443.99 174.9 436.11 172.12 428.23 170.25 420.41 169.44 412.67 169.4 404.93 170.49 397.45 172.61 390.23 175.34 383 178.86 376.01 182.98 369.27 187.24 362.51 191.76 355.97 196.37 349.67 200.63 343.31 204.72 337.17 208.57 331.21 211.81 325.19 214.75 319.34 217.41 313.64 219.5 307.85 221.42 302.18 223.28 296.62 224.82 290.93 226.49 285.33 228.4 279.8 230.28 274.11 232.59 268.46 235.37 262.87 238.36 257.1 241.93 251.36 246.08 245.66 250.54 239.8 255.58 234 261.15 228.27 267.04 222.42 273.4 216.69 280.14 211.11 287.14 205.5 294.45 200.1 301.99 194.99 309.69 189.94 317.55 185.26 325.49 181.01 333.53 176.96 341.59 173.42 349.61 170.46 357.68 167.81 365.68 165.82 373.56 164.53 381.45 163.62 389.19 163.44 396.73 164.04" stroke-dasharray="2 0" transform="rotate(24.24, 400, 400)" opacity="0.28"></path><path d="M388.46 174.65C395.48 175.59 402.15 177.2 408.47 179.43 414.78 181.92 420.74 184.96 426.35 188.46 431.98 192.11 437.3 196.15 442.33 200.51 447.44 204.88 452.34 209.51 457.1 214.32 462.05 219.04 466.99 223.89 472 228.84 477.37 233.62 482.97 238.47 488.9 243.36 495.36 248.05 502.28 252.78 509.73 257.53 517.77 262.08 526.35 266.68 535.44 271.33 544.96 275.8 554.79 280.35 564.77 284.99 574.72 289.48 584.39 294.09 593.49 298.84 601.85 303.48 609.12 308.29 614.99 313.28 620.85 320.75 621.03 336.67 615.55 345.17 610.42 350.89 604.3 356.86 597.61 363.08 591.3 369.28 585.41 375.74 580.41 382.47 577.12 389.18 575.46 396.17 575.63 403.42 578 410.67 582 418.02 587.28 425.46 593.84 432.9 600.75 440.43 607.48 448.02 614.02 455.62 619.44 463.29 623.37 470.98 625.97 478.68 626.62 486.41 625.29 494.12 622.33 501.82 617.53 509.48 611.12 517.06 603.53 524.59 594.85 532 585.42 539.23 575.58 546.35 565.54 553.23 555.57 559.82 545.87 566.21 536.59 572.23 527.84 577.8 519.73 583.11 512.23 587.89 505.35 592.09 496.27 597.56 481.02 604.57 474.28 606 468.02 606.22 455.09 602.98 448.05 599.82 443.29 597.52 438.15 594.87 432.63 591.96 427.1 589.29 421.17 586.54 414.83 583.82 408.49 581.58 401.74 579.52 394.62 577.72 387.5 576.59 380.19 575.81 372.73 575.38 365.3 575.62 357.75 576.14 350.13 576.9 342.56 578.18 334.96 579.55 327.4 580.94 319.93 582.65 312.53 584.21 305.29 585.54 298.21 586.97 291.35 588.02 284.78 588.63 275.46 589.13 259.34 587 252.76 584.24 247.18 580.46 238.99 569.53 236.19 562.54 234.46 557.49 233 551.99 231.71 546.12 230.15 540.07 228.57 533.7 226.88 527.07 224.68 520.32 222.24 513.36 219.52 506.23 216.21 499.05 212.62 491.74 208.81 484.34 204.59 476.93 200.33 469.45 196.18 461.96 192.02 454.46 188.28 446.96 185.14 439.48 182.45 432 180.65 424.55 179.85 417.15 179.8 409.75 180.81 402.57 182.82 395.62 185.42 388.65 188.8 381.9 192.79 375.36 196.96 368.8 201.43 362.43 206.04 356.26 210.39 350.04 214.63 344 218.68 338.12 222.19 332.17 225.43 326.36 228.39 320.69 230.79 314.92 232.99 309.25 235.06 303.68 236.73 297.99 238.44 292.37 240.28 286.81 241.97 281.11 243.97 275.46 246.31 269.86 248.74 264.1 251.65 258.4 255.03 252.74 258.64 246.96 262.77 241.25 267.39 235.64 272.28 229.94 277.62 224.37 283.37 218.98 289.36 213.58 295.68 208.42 302.28 203.54 309.06 198.76 316.03 194.33 323.15 190.33 330.37 186.53 337.67 183.23 344.99 180.48 352.36 178.02 359.71 176.18 366.97 175.01 374.26 174.19 381.44 174.06 388.45 174.65" stroke-dasharray="4 6" transform="rotate(28.28, 400, 400)" opacity="0.32"></path><path d="M381.94 185.25C388.48 186.16 394.78 187.69 400.81 189.8 406.85 192.16 412.65 195.03 418.22 198.35 423.83 201.81 429.25 205.66 434.53 209.82 439.9 214.02 445.21 218.46 450.52 223.11 456.03 227.7 461.64 232.43 467.43 237.28 473.55 241.99 479.95 246.79 486.71 251.64 493.89 256.32 501.49 261.05 509.51 265.81 517.93 270.4 526.73 275.04 535.82 279.72 545.1 284.24 554.44 288.83 563.67 293.49 572.64 298.02 581.12 302.65 588.85 307.39 595.75 312.03 601.5 316.8 605.85 321.73 609.67 329.09 607.2 344.65 601.32 352.9 596.32 358.44 590.56 364.2 584.43 370.19 578.78 376.15 573.57 382.36 569.2 388.8 566.39 395.24 565 401.92 565.22 408.85 567.37 415.77 570.95 422.78 575.67 429.86 581.57 436.94 587.85 444.09 594.06 451.28 600.23 458.48 605.54 465.71 609.64 472.95 612.71 480.18 614.12 487.41 613.81 494.59 612.09 501.75 608.67 508.84 603.71 515.81 597.6 522.72 590.31 529.47 582.13 536.02 573.38 542.44 564.18 548.61 554.8 554.46 545.43 560.12 536.22 565.4 527.31 570.24 518.8 574.83 510.73 578.92 503.15 582.46 496.08 585.7 489.48 588.34 483.29 590.36 474.84 592.59 459.58 593.46 452.33 592.19 445.29 590.14 430.54 583.85 422.61 580.02 417.24 577.61 411.57 575.14 405.58 572.68 399.59 570.65 393.28 568.78 386.67 567.11 380.05 566.04 373.29 565.25 366.44 564.76 359.62 564.86 352.72 565.2 345.81 565.73 338.95 566.74 332.12 567.84 325.36 568.95 318.71 570.38 312.2 571.68 305.88 572.81 296.77 574.52 280.39 576.1 273.34 575.71 262.19 571.91 250.58 560.04 248.15 554.03 245.78 547.27 241 531.54 238.11 522.76 235.62 516.71 232.88 510.41 229.88 503.93 226.35 497.38 222.58 490.67 218.66 483.84 214.39 476.99 210.14 470.05 206.05 463.05 201.99 456.04 198.37 449 195.35 441.94 192.77 434.88 191.04 427.82 190.27 420.77 190.19 413.72 191.13 406.85 193.02 400.17 195.47 393.48 198.69 386.96 202.52 380.63 206.56 374.27 210.94 368.07 215.51 362.03 219.9 355.95 224.25 350.02 228.46 344.22 232.21 338.35 235.73 332.6 238.99 326.96 241.72 321.24 244.24 315.59 246.58 310.03 248.5 304.36 250.37 298.76 252.28 293.21 253.95 287.54 255.81 281.92 257.9 276.36 259.98 270.67 262.4 265.04 265.22 259.48 268.15 253.82 271.53 248.24 275.33 242.79 279.33 237.27 283.76 231.91 288.58 226.74 293.59 221.59 298.96 216.68 304.62 212.07 310.44 207.55 316.51 203.4 322.77 199.66 329.12 196.11 335.61 193.04 342.18 190.51 348.8 188.24 355.46 186.56 362.11 185.5 368.77 184.76 375.39 184.67 381.93 185.25" stroke-dasharray="8 9" transform="rotate(32.32, 400, 400)" opacity="0.35"></path><path d="M378.18 195.86C384.3 196.73 390.28 198.18 396.11 200.17 401.96 202.39 407.69 205.09 413.31 208.22 418.97 211.49 424.57 215.13 430.15 219.09 435.83 223.09 441.56 227.34 447.38 231.8 453.4 236.23 459.58 240.82 465.99 245.52 472.67 250.14 479.64 254.84 486.92 259.62 494.51 264.26 502.41 268.95 510.6 273.7 519.01 278.29 527.61 282.93 536.3 287.62 544.96 292.17 553.49 296.78 561.69 301.45 569.47 306 576.61 310.63 582.9 315.36 590.48 322.36 597.63 336.88 596.79 344.46 594.73 349.51 591.43 354.73 587.05 360.14 582.27 365.51 576.94 371.08 571.41 376.84 566.39 382.59 561.84 388.54 558.06 394.71 555.69 400.86 554.55 407.24 554.8 413.83 556.75 420.42 559.94 427.07 564.12 433.76 569.39 440.46 575.05 447.2 580.72 453.96 586.48 460.71 591.58 467.48 595.73 474.22 599.1 480.95 601.1 487.65 601.63 494.27 600.97 500.85 598.8 507.33 595.2 513.67 590.51 519.94 584.64 526.03 577.81 531.88 570.3 537.62 562.19 543.08 553.69 548.21 545 553.17 536.23 557.76 527.55 561.91 519.04 565.84 510.79 569.3 502.88 572.24 495.31 574.93 488.12 577.07 481.29 578.65 471.75 580.35 454.44 580.61 446.37 579.28 438.64 577.33 423.15 571.58 415.17 568.13 409.83 565.98 404.3 563.77 398.57 561.56 392.85 559.75 386.9 558.05 380.74 556.5 374.58 555.49 368.37 554.7 362.13 554.16 355.91 554.14 349.69 554.31 343.52 554.64 337.39 555.4 331.35 556.24 325.45 557.09 316.83 558.77 300.88 561.64 293.75 562.52 281.8 562.49 268.36 557.59 265.34 554.09 262.59 549.85 257.8 538.89 255.38 532.29 253.39 527.63 251.28 522.63 248.98 517.34 246.19 511.95 243.17 506.31 239.92 500.45 236.2 494.53 232.3 488.43 228.29 482.18 224.03 475.9 219.83 469.5 215.83 463.01 211.9 456.5 208.43 449.93 205.54 443.31 203.08 436.69 201.43 430.02 200.68 423.34 200.59 416.66 201.45 410.12 203.2 403.72 205.5 397.32 208.54 391.05 212.18 384.92 216.06 378.78 220.32 372.76 224.8 366.87 229.18 360.95 233.57 355.13 237.9 349.43 241.84 343.67 245.61 338 249.15 332.42 252.21 326.76 255.06 321.18 257.72 315.66 259.95 310.06 262.08 304.5 264.17 299.01 265.98 293.42 267.86 287.88 269.89 282.4 271.8 276.83 273.95 271.32 276.4 265.89 278.86 260.4 281.68 255.01 284.86 249.75 288.15 244.46 291.81 239.34 295.84 234.42 300 229.54 304.51 224.9 309.33 220.57 314.26 216.34 319.46 212.47 324.9 208.99 330.41 205.71 336.11 202.88 341.95 200.55 347.84 198.48 353.83 196.95 359.88 196 365.94 195.34 372.05 195.29 378.17 195.86" stroke-dasharray="8 9" transform="rotate(36.36, 400, 400)" opacity="0.39"></path><path d="M377.73 206.47C383.49 207.29 389.21 208.66 394.89 210.53 400.59 212.61 406.28 215.14 411.97 218.08 423.48 224.34 435.26 231.9 447.5 240.4 460.37 248.84 474.14 257.9 488.83 267.31 504.22 276.31 520.26 285.57 536.24 295.01 551.5 303.96 565.05 313.18 575.52 322.67 582.76 331.79 585.37 341.36 582.93 351.4 577.45 361.25 568.71 371.72 558.54 382.82 554.16 388.35 550.22 394.06 547 399.94 545.02 405.81 544.11 411.87 544.39 418.11 546.14 424.35 548.96 430.63 552.65 436.92 557.32 443.22 562.37 449.53 567.49 455.82 578.01 468.4 585.61 480.87 588.83 492.99 588.24 504.93 582.41 516.3 572.25 526.78 559.29 536.8 544.04 545.6 527.92 552.85 511.75 559.32 496.16 563.99 481.62 566.63 468.1 568.46 455.58 568.35 443.84 566.4 432.79 564.17 421.94 560.69 411.06 556.31 402.96 553.43 386.33 548.08 377.75 545.89 369.14 544.55 352.18 543.46 343.93 543.62 333.12 545.07 322.96 546.56 313.76 547.76 304.96 549.55 297.36 550.33 291.2 549.83 285.38 549.1 280.83 546.7 277.42 542.63 273.62 538 270.21 531.7 266.76 523.94 261.79 515.72 256.1 506.24 249.6 495.8 241.55 485.11 233.27 473.68 225.52 461.73 221.76 455.74 218.44 449.65 215.7 443.47 213.38 437.3 211.82 431.05 211.1 424.75 210.99 418.45 211.77 412.24 213.38 406.14 215.52 400.04 218.35 394.04 221.79 388.14 229.34 376.3 238.03 364.81 246.99 353.69 254.8 342.4 261.95 331.35 268.34 320.56 273.09 309.51 277.49 298.62 281.93 288 285.64 277.14 290.13 266.58 295.66 256.55 301.28 246.51 308.22 237.24 316.39 229.06 324.82 221.34 334.34 215.07 344.69 210.61 352.59 208.03 369.15 205.92 377.72 206.47" stroke-dasharray="1 10" transform="rotate(40.400000000000006, 400, 400)" opacity="0.43"></path><path d="M380.68 217.08C391.55 218.87 402.67 222.59 414.04 227.92 425.57 233.77 437.62 240.88 450.23 248.9 463.29 256.96 477.12 265.64 491.54 274.73 506.19 283.52 520.96 292.6 535.06 301.88 548.03 310.76 558.93 319.89 566.67 329.26 571.49 338.31 572.21 347.73 568.7 357.53 563.01 367.16 554.87 377.3 545.84 387.95 539.03 398.54 534.67 409.73 533.97 421.49 538.34 433.25 545.69 445.03 554.38 456.68 564.05 468.3 571.52 479.69 575.5 490.63 576.48 501.39 572.91 511.5 565.32 520.68 555.01 529.44 542.1 537 527.79 543.1 512.89 548.54 497.94 552.34 483.54 554.35 469.72 555.73 456.69 555.43 444.45 553.54 432.75 551.52 421.49 548.42 410.53 544.54 399.74 541.45 388.95 538.27 378.15 535.29 367.35 533.9 357.04 533.05 347.37 532.68 337.78 533.68 329.01 534.7 321.26 535.48 310.54 537.14 295.01 535.28 289.6 530.77 285.61 526.89 281.73 521.5 277.64 514.75 272.07 507.63 265.82 499.3 258.93 489.98 250.78 480.46 242.61 470.12 235.14 459.19 228.21 448.2 223.41 436.72 221.51 424.91 221.82 413.09 225.29 401.5 231.34 390.22 238.49 378.9 246.89 367.81 255.75 357 263.77 346.07 271.37 335.3 278.32 324.78 283.79 314.05 288.83 303.49 293.7 293.23 297.68 282.81 302.12 272.74 307.29 263.23 312.28 253.8 318.35 245.14 325.5 237.56 332.75 230.45 341.09 224.73 350.35 220.69 359.67 217.51 369.81 216.24 380.67 217.07" stroke-dasharray="6 3" transform="rotate(44.44, 400, 400)" opacity="0.47"></path><path d="M386.58 227.68C396.86 229.37 407.65 232.82 418.87 237.75 430.22 243.19 442.17 249.82 454.65 257.34 467.37 264.95 480.63 273.21 494.11 281.9 507.45 290.39 520.43 299.21 532.3 308.24 542.84 316.96 551.14 325.93 556.38 335.1 559.15 344.01 558.41 353.23 554.23 362.75 548.6 372.12 541.19 381.89 533.32 392.06 527.6 402.18 524.04 412.78 523.55 423.79 527.41 434.8 533.79 445.72 541.41 456.4 550.16 467.03 557.31 477.35 561.72 487.13 563.91 496.74 562.23 505.64 556.96 513.6 549.21 521.2 538.78 527.65 526.6 532.73 513.48 537.28 499.79 540.36 486.18 541.86 472.75 542.91 459.8 542.5 447.52 540.73 435.6 538.96 424.19 536.25 413.29 532.85 402.53 530.18 392.05 527.38 381.88 524.68 371.7 523.35 362.27 522.4 353.66 521.81 345.08 522.41 337.4 523.01 330.74 523.38 321.34 524.51 307.14 522.58 301.5 518.65 297.11 515.35 292.66 510.71 287.88 504.84 281.76 498.68 275.06 491.37 267.89 483.1 259.77 474.64 251.82 465.36 244.68 455.41 238.18 445.4 233.71 434.83 231.93 423.82 232.15 412.81 235.3 401.89 240.87 391.16 247.55 380.41 255.56 369.8 264.18 359.39 272.28 348.88 280.16 338.51 287.57 328.34 293.71 318.05 299.42 307.93 304.85 298.12 309.33 288.24 314.02 278.73 319.17 269.82 323.96 261.04 329.56 253.04 336.09 246.08 342.55 239.59 350.03 234.41 358.47 230.79 366.9 227.94 376.28 226.85 386.58 227.68" stroke-dasharray="8 2" transform="rotate(48.48, 400, 400)" opacity="0.51"></path><path d="M394.51 238.29C404.25 239.86 414.58 243.04 425.4 247.59 436.3 252.59 447.75 258.72 459.59 265.72 471.49 272.84 483.63 280.62 495.64 288.85 507.25 296.96 518.12 305.43 527.61 314.12 535.75 322.59 541.65 331.31 544.76 340.2 545.89 348.89 544.1 357.84 539.61 367 534.28 376.06 527.72 385.43 520.98 395.08 516.28 404.69 513.44 414.65 513.14 424.89 516.52 435.13 522 445.17 528.58 454.88 536.37 464.54 543.03 473.8 547.61 482.46 550.62 490.97 550.45 498.75 547.17 505.59 541.77 512.13 533.77 517.59 523.87 521.8 512.86 525.61 500.89 528.1 488.6 529.22 476.16 530.03 463.88 529.6 452.05 528.01 440.4 526.48 429.21 524.16 418.58 521.22 408.06 518.95 397.96 516.51 388.36 514.07 378.77 512.81 370.06 511.79 362.26 511 354.44 511.26 347.54 511.47 341.57 511.48 332.94 512.07 319 509.89 312.78 506.36 307.89 503.5 302.81 499.47 297.39 494.34 290.82 488.99 283.79 482.59 276.49 475.25 268.53 467.78 260.89 459.47 254.17 450.46 248.13 441.4 244 431.72 242.34 421.53 242.49 411.34 245.31 401.14 250.37 391.03 256.53 380.9 264.05 370.83 272.32 360.91 280.33 350.93 288.33 341.04 296.04 331.35 302.74 321.58 309.06 312 315.07 302.75 320.17 293.49 325.32 284.63 330.71 276.36 335.62 268.28 341.12 260.96 347.35 254.65 353.4 248.78 360.34 244.13 368.2 240.92 376 238.4 384.77 237.47 394.51 238.29" stroke-dasharray="4 1" transform="rotate(52.52, 400, 400)" opacity="0.54"></path><path d="M403.28 248.9C412.47 250.35 422.2 253.26 432.34 257.41 442.52 261.98 453.1 267.6 463.86 274.05 474.53 280.64 485.16 287.89 495.35 295.6 504.99 303.25 513.66 311.28 520.82 319.55 526.74 327.67 530.58 336.03 531.98 344.55 531.89 352.93 529.46 361.52 524.98 370.28 520.13 378.95 514.47 387.85 508.83 396.94 505.07 406 502.86 415.29 502.72 424.75 505.66 434.2 510.31 443.35 515.91 452.1 522.72 460.82 528.77 469.05 533.27 476.66 536.75 484.14 537.7 490.89 536.04 496.74 532.68 502.34 526.92 506.95 519.27 510.43 510.49 513.61 500.52 515.65 489.91 516.5 478.94 517.16 467.82 516.76 456.89 515.37 445.98 514.11 435.39 512.16 425.29 509.66 415.25 507.75 405.66 505.64 396.62 503.47 387.58 502.27 379.46 501.21 372.24 500.27 361.75 500.16 344.59 499.86 337.47 498.82 330.13 497.31 314.88 489.72 306.1 483.42 299.22 478.75 292.04 473.13 284.77 466.63 277.09 460.02 269.86 452.61 263.6 444.49 258.06 436.33 254.29 427.53 252.76 418.17 252.83 408.81 255.32 399.35 259.86 389.91 265.46 380.47 272.42 371.02 280.21 361.68 287.96 352.31 295.9 343.01 303.72 333.89 310.8 324.75 317.6 315.8 324.12 307.19 329.85 298.62 335.52 290.47 341.28 282.91 346.54 275.55 352.19 268.93 358.37 263.26 364.32 258.02 370.99 253.89 378.45 251.07 385.83 248.87 394.1 248.1 403.28 248.9" stroke-dasharray="2 7" transform="rotate(56.56, 400, 400)" opacity="0.58"></path><path d="M411.55 259.5C420.14 260.84 429.12 263.48 438.35 267.23 447.58 271.37 457 276.47 466.37 282.34 475.56 288.38 484.45 295.05 492.66 302.18 500.31 309.31 506.86 316.82 511.91 324.58 515.93 332.26 518.1 340.17 518.23 348.23 517.34 356.2 514.65 364.35 510.43 372.61 506.2 380.82 501.47 389.19 496.88 397.66 493.97 406.12 492.32 414.71 492.31 423.36 494.84 432 498.72 440.28 503.41 448.11 509.24 455.9 514.58 463.17 518.8 469.81 523.29 479.25 520.08 493.86 512.6 498.69 506 501.38 498.1 503.07 489.36 503.75 480.15 504.32 470.54 504 460.85 502.85 451.07 501.85 441.42 500.26 432.1 498.17 422.8 496.59 413.86 494.79 405.4 492.86 396.93 491.74 389.31 490.65 382.48 489.61 372.49 489.1 355.52 487.89 348.01 486.55 342.7 485.69 337.5 484.12 332.3 481.79 326.41 479.46 320.31 476.27 314 472.24 306.98 468.13 299.82 463.16 292.74 457.4 285.46 451.56 278.74 444.96 273 437.68 267.97 430.37 264.57 422.42 263.17 413.89 263.18 405.36 265.34 396.68 269.35 387.97 274.35 379.27 280.68 370.52 287.89 361.84 295.22 353.16 302.91 344.54 310.64 336.09 317.87 327.65 324.96 319.42 331.85 311.52 338.09 303.71 344.25 296.31 350.4 289.49 356.09 282.88 362.01 276.97 368.27 271.95 374.3 267.31 380.87 263.69 388.05 261.26 395.14 259.35 402.97 258.73 411.55 259.5" stroke-dasharray="6 10" transform="rotate(60.599999999999994, 400, 400)" opacity="0.62"></path><path d="M418.06 270.11C425.98 271.33 434.09 273.7 442.25 277.06 450.38 280.76 458.46 285.34 466.28 290.62 473.88 296.08 480.98 302.14 487.29 308.64 493.08 315.18 497.75 322.1 501.03 329.28 503.54 336.42 504.48 343.79 503.8 351.3 502.48 358.76 499.82 366.38 496.07 374.07 492.55 381.73 488.74 389.5 485.12 397.31 482.96 405.11 481.8 412.97 481.9 420.8 484.05 428.64 487.25 436.06 491.08 442.99 495.97 449.9 500.54 456.27 504.33 462.03 508.84 476.42 496.23 489.72 486.4 491.03 479.07 491.58 471.13 491.37 462.9 490.46 454.51 489.72 446.04 488.46 437.7 486.74 429.34 485.47 421.18 483.95 413.35 482.25 405.51 481.22 398.33 480.13 391.8 479.02 385.19 478.51 379.12 477.86 373.53 477.02 365 476.2 348.57 472.76 340.11 469.72 333.91 467.53 327.56 464.62 321.08 460.99 314.14 457.33 307.19 452.92 300.46 447.8 293.7 442.63 287.55 436.77 282.38 430.27 277.88 423.75 274.85 416.61 273.59 408.91 273.53 401.22 275.37 393.34 278.86 385.41 283.25 377.48 288.89 369.49 295.42 361.56 302.19 353.63 309.43 345.76 316.86 338.07 324.02 330.41 331.16 322.96 338.18 315.84 344.74 308.82 351.23 302.21 357.67 296.16 363.73 290.31 369.91 285.11 376.28 280.73 382.44 276.68 388.96 273.55 395.89 271.49 402.75 269.86 410.14 269.37 418.06 270.11" stroke-dasharray="9 10" transform="rotate(64.64, 400, 400)" opacity="0.66"></path><path d="M421.82 280.72C429.01 281.82 436.16 283.92 443.16 286.9 450.12 290.16 456.82 294.21 463.09 298.9 469.15 303.76 474.6 309.18 479.2 315.02 483.39 320.92 486.54 327.19 488.48 333.71 489.89 340.23 490.05 346.98 488.94 353.86 487.53 360.72 485.13 367.71 482 374.76 479.22 381.79 476.29 388.9 473.56 395.99 472.05 403.09 471.3 410.19 471.48 417.2 473.29 424.21 475.87 430.79 478.92 436.88 484.81 445.73 494.28 460.5 496.26 466.23 496.06 471.14 488.01 477.21 480.77 478.39 475.21 478.95 468.96 478.88 462.24 478.21 455.35 477.71 448.19 476.75 440.95 475.39 433.68 474.38 426.41 473.13 419.26 471.64 412.11 470.7 405.41 469.63 399.14 468.48 392.81 467.83 386.84 467 381.17 465.97 375.34 465.3 369.67 464.3 364.13 462.94 358.28 461.77 352.4 460.12 346.5 457.95 340.2 455.84 333.82 453.14 327.43 449.84 320.76 446.54 314.2 442.6 307.96 438.04 301.82 433.46 296.32 428.27 291.74 422.5 287.79 416.71 285.12 410.36 284.01 403.49 283.89 396.62 285.42 389.57 288.4 382.45 292.16 375.33 297.07 368.16 302.86 361.02 308.95 353.91 315.59 346.86 322.51 339.98 329.34 333.15 336.27 326.53 343.18 320.23 349.8 314.04 356.39 308.24 362.93 302.95 369.19 297.86 375.5 293.37 381.88 289.61 388.09 286.13 394.51 283.47 401.15 281.75 407.73 280.39 414.63 280.01 421.82 280.72" stroke-dasharray="5 9" transform="rotate(68.68, 400, 400)" opacity="0.70"></path><path d="M422.25 291.32C435.05 293.58 446.84 299.17 456.72 307.2 465.97 315.82 472.27 326.37 474.68 337.96 475.88 349.63 473.44 362.15 468.3 374.83 464.79 387.49 461.87 400.34 461.06 412.73 465.26 425.11 470.8 435.77 475.77 444.32 482.23 455.79 472.8 466.54 458.47 466.13 447.45 465.75 435.04 463.98 422.24 461.04 409.44 459.75 397.45 457.76 386.3 455.14 374.65 453.7 363.04 450.9 351.51 446.56 339.04 442.56 326.6 436.48 315.32 428.38 304.72 420.25 297.16 410.01 294.42 397.89 294.94 385.78 300.75 373.04 310.28 360.44 321.16 347.96 333.87 335.79 347 324.78 359.6 314.19 372.3 305.16 384.81 298.6 396.91 293 409.45 290.34 422.25 291.32" stroke-dasharray="6 8" transform="rotate(72.72, 400, 400)" opacity="0.73"></path><path d="M419.29 301.93C430.41 303.87 440.01 308.65 447.5 315.53 454.56 322.92 458.91 332.03 460.12 342.11 460.8 352.32 458.84 363.32 455.04 374.45 452.84 385.6 451.06 396.87 450.65 407.62 453.99 418.37 458.14 427.53 461.87 434.81 467.41 444.63 462.22 454.16 451.58 454.21 443.17 454.17 433.02 452.88 421.83 450.43 410.65 449.23 399.53 447.22 388.75 444.54 377.66 442.77 366.41 439.83 355.31 435.64 343.76 431.77 332.51 426.22 322.6 419.02 313.52 411.85 307.14 402.91 304.84 392.4 305.12 381.89 309.83 370.87 317.75 360.02 327 349.29 338.13 338.9 349.92 329.58 361.62 320.65 373.56 313.11 385.22 307.72 396.67 303.1 408.17 300.98 419.29 301.93" stroke-dasharray="7 4" transform="rotate(76.76, 400, 400)" opacity="0.77"></path><path d="M413.39 312.54C422.8 314.18 430.48 318.17 436.13 323.91 441.53 330.07 444.64 337.73 445.35 346.25 445.98 354.92 444.76 364.3 442.29 373.81 441.22 383.36 440.35 392.98 440.23 402.13 442.82 411.27 445.78 419.01 448.35 425.15 451.19 437.76 431.65 442.26 418.1 439.82 408.59 438.73 398.65 436.78 388.69 434.16 378.6 432.21 368.27 429.25 358.16 425.26 347.97 421.56 338.23 416.52 329.88 410.2 322.35 403.92 317.13 396.23 315.25 387.29 315.34 378.35 319.01 369.05 325.36 359.97 332.88 350.98 342.19 342.36 352.27 334.72 362.55 327.38 373.18 321.27 383.54 316.98 393.86 313.28 403.99 311.64 413.39 312.54" stroke-dasharray="6 7" transform="rotate(80.80000000000001, 400, 400)" opacity="0.81"></path><path d="M405.45 323.15C413.14 324.49 419.22 327.71 423.54 332.35 427.77 337.32 430.21 343.53 430.91 350.49 431.77 357.58 431.36 365.29 430.09 373.13 429.9 381.02 429.73 388.97 429.82 396.53 435.42 414.94 436.11 430.16 430.34 430.92 425.72 431.35 419.41 430.8 411.6 429.22 403.8 428.25 395.32 426.45 386.65 423.99 377.97 422.01 369.05 419.15 360.42 415.47 351.91 412.02 343.92 407.53 337.23 402.09 331.25 396.68 327.15 390.21 325.67 382.81 325.6 375.42 328.32 367.82 333.18 360.47 338.97 353.2 346.33 346.31 354.48 340.27 362.94 334.46 371.82 329.69 380.52 326.4 389.26 323.54 397.76 322.33 405.45 323.15" stroke-dasharray="10 3" transform="rotate(84.84, 400, 400)" opacity="0.85"></path><path d="M396.68 333.75C408.73 336.18 415.59 344.22 417.3 354.9 419.92 366.04 420.14 379.11 419.4 391.11 424.25 407.33 419.05 420.83 403.34 418.61 391.09 417.39 376.27 412.96 362.5 406.32 349.48 400.3 339.18 390.97 336.08 379.2 336.68 367.43 345.04 355.53 356.98 346.3 370.08 337.7 384.62 332.69 396.68 333.75" stroke-dasharray="9 1" transform="rotate(88.88, 400, 400)" opacity="0.89"></path><path d="M388.41 344.36C397.27 346.09 402.75 351.86 404.93 359.6 407.85 367.64 409.1 377.2 408.99 386.13 411.69 398.3 406.16 409.32 394.57 408 385.57 406.96 374.72 403.23 364.86 397.81 355.64 392.77 348.55 385.43 346.5 376.63 346.59 367.84 352.05 359.29 360.2 352.87 369.19 346.81 379.55 343.41 388.41 344.36" stroke-dasharray="11 0" transform="rotate(92.92, 400, 400)" opacity="0.92"></path><path d="M381.91 354.97C393.53 357.48 399.27 370.02 398.57 381.84 402.22 393.66 398.38 400.08 386.62 397.4 374.85 396.22 360.19 386.94 356.91 375.24 357.54 363.53 370.28 353.87 381.91 354.97" stroke-dasharray="3 8" transform="rotate(96.96, 400, 400)" opacity="0.96"></path></g></svg>