<?xml version="1.0" encoding="UTF-8"?>
<!-- Generated by Pixelmator Pro 3.4.3 -->
<svg width="24" height="24" viewBox="0 0 24 24" xmlns="http://www.w3.org/2000/svg">
    <path id="Path" fill="#7952b3" stroke="none" d="M 11.77 11.24 L 9.956 11.24 L 9.956 8.202 L 12.108 8.202 C 13.278 8.202 13.942 8.724 13.942 9.668 C 13.942 10.676 13.169 11.24 11.768 11.24 Z M 12.094 12.446 L 9.957 12.446 L 9.957 15.794 L 12.188 15.794 C 13.647 15.794 14.42 15.209 14.42 14.109 C 14.42 13.009 13.625 12.446 12.094 12.446 Z M 24 11.39 L 24 12.608 C 22.872 12.716 22.183001 13.552 21.774 14.876 C 21.367001 16.195 21.311001 17.813 21.354 19.062 C 21.399 20.362 20.386 21.562 19.017 21.562 L 4.985 21.562 C 3.615 21.562 2.602 20.362 2.648 19.062 C 2.691 17.813 2.635 16.195 2.228 14.876 C 1.818 13.552 1.128 12.716 0 12.608 L 0 11.39 C 1.128 11.282 1.819 10.446 2.227 9.122 C 2.635 7.802999 2.691 6.184999 2.647 4.936001 C 2.602 3.636 3.615 2.436001 4.985 2.436001 L 19.017 2.436001 C 20.386999 2.436001 21.399 3.636 21.354 4.936001 C 21.311001 6.184999 21.367001 7.802999 21.774 9.122 C 22.183001 10.446 22.872 11.282 24 11.39 Z M 16.073 14.207 C 16.073 12.853 15.12 11.874 13.705 11.719 L 13.705 11.662 C 14.745 11.493 15.561 10.527 15.561 9.449 C 15.561 7.912001 14.348 6.910999 12.499 6.910999 L 8.339 6.910999 L 8.339 17.083 L 12.52 17.083 C 14.738 17.083 16.073 15.997 16.073 14.207 Z"/>
</svg>
