<?xml version="1.0" encoding="UTF-8"?>
<!-- Generated by Pixelmator Pro 3.4.3 -->
<svg width="24" height="24" viewBox="0 0 24 24" xmlns="http://www.w3.org/2000/svg">
    <path id="Path" fill="#2496ed" stroke="none" d="M 13.983 11.078 L 16.101999 11.078 C 16.204336 11.078001 16.287449 10.995335 16.288 10.893 L 16.288 9.006 C 16.288 8.903275 16.204725 8.82 16.101999 8.82 L 13.983 8.82 C 13.880827 8.82 13.798 8.902827 13.798 9.005 L 13.798 10.893 C 13.798 10.995 13.881 11.078 13.983 11.078 M 11.029 5.647999 L 13.147 5.647999 C 13.249725 5.647999 13.333 5.564724 13.333 5.462 L 13.333 3.573999 C 13.33245 3.471666 13.249335 3.388998 13.147 3.389 L 11.029 3.389 C 10.926827 3.389 10.844 3.471827 10.844 3.573999 L 10.844 5.462 C 10.844 5.563999 10.926 5.646999 11.029 5.646999 M 11.029 8.363 L 13.147 8.363 C 13.249497 8.362453 13.332454 8.279498 13.333 8.177 L 13.333 6.290001 C 13.33245 6.187666 13.249335 6.105 13.147 6.105 L 11.029 6.105 C 10.926827 6.105 10.844 6.187828 10.844 6.290001 L 10.844 8.177 C 10.844 8.279 10.926 8.362 11.029 8.363 M 8.099 8.363 L 10.219 8.363 C 10.320943 8.361904 10.403006 8.278949 10.403 8.177 L 10.403 6.290001 C 10.403 6.187828 10.320172 6.105 10.218 6.105 L 8.1 6.105 C 7.997828 6.105 7.915 6.187828 7.915 6.290001 L 7.915 8.177 C 7.915 8.279 7.998 8.362 8.1 8.363 M 5.136 8.363 L 7.255 8.363 C 7.357334 8.36245 7.440001 8.279336 7.44 8.177 L 7.44 6.290001 C 7.44 6.187828 7.357172 6.105 7.255 6.105 L 5.136 6.105 C 5.033664 6.105 4.95055 6.187666 4.95 6.290001 L 4.95 8.177 C 4.95 8.279 5.034 8.362 5.136 8.363 M 11.029 11.078 L 13.147 11.078 C 13.249335 11.078001 13.33245 10.995335 13.333 10.893 L 13.333 9.006 C 13.333 8.903275 13.249725 8.82 13.147 8.82 L 11.029 8.82 C 10.926827 8.82 10.844 8.902827 10.844 9.005 L 10.844 10.893 C 10.844 10.995 10.926 11.078 11.029 11.078 M 8.099 11.078 L 10.219 11.078 C 10.320782 11.07745 10.403002 10.994783 10.403 10.893 L 10.403 9.006 C 10.403266 8.956935 10.384029 8.909774 10.349523 8.874891 C 10.315016 8.84001 10.268065 8.820265 10.219 8.82 L 8.099 8.82 C 7.997218 8.82055 7.914999 8.903216 7.915 9.005 L 7.915 10.893 C 7.915 10.995 7.998 11.078 8.1 11.078 M 5.136 11.078 L 7.255 11.078 C 7.357172 11.078 7.44 10.995173 7.44 10.893 L 7.44 9.006 C 7.440266 8.956935 7.42103 8.909774 7.386523 8.874891 C 7.352016 8.84001 7.305065 8.820265 7.256 8.82 L 5.136 8.82 C 5.033275 8.82 4.95 8.903275 4.95 9.006 L 4.95 10.893 C 4.95 10.995 5.034 11.078 5.136 11.078 M 2.216 11.078 L 4.336 11.078 C 4.437782 11.07745 4.520001 10.994783 4.52 10.893 L 4.52 9.006 C 4.520266 8.956935 4.501029 8.909774 4.466523 8.874891 C 4.432016 8.84001 4.385065 8.820265 4.336 8.82 L 2.216 8.82 C 2.114218 8.82055 2.031998 8.903216 2.032 9.005 L 2.032 10.893 C 2.032 10.995 2.114 11.078 2.217 11.078 M 23.763 9.89 C 23.698 9.839 23.091 9.38 21.809 9.38 C 21.471001 9.381 21.132999 9.41 20.799 9.467 C 20.551001 7.767 19.146 6.937 19.083 6.901001 L 18.739 6.702 L 18.513 7.028999 C 18.229 7.466999 18.023001 7.951 17.900999 8.459 C 17.671 9.429 17.811001 10.341 18.304001 11.12 C 17.709 11.452 16.754 11.533 16.559999 11.54 L 0.751 11.54 C 0.337793 11.540547 0.00265 11.874796 0.001 12.288 C -0.017518 13.672835 0.216995 15.049412 0.693 16.35 C 1.238 17.778 2.048 18.83 3.103 19.474001 C 4.283 20.197001 6.203 20.611 8.378 20.611 C 9.361 20.614 10.341 20.525 11.308 20.344999 C 12.650844 20.098316 13.942991 19.628843 15.131 18.955999 C 16.111 18.389 16.990999 17.667999 17.740999 16.82 C 18.993 15.402 19.739 13.823 20.294001 12.42 L 20.514999 12.42 C 21.886999 12.42 22.73 11.871 23.195 11.411 C 23.504 11.118 23.745001 10.761 23.902 10.365 L 24 10.077 Z"/>
</svg>
