<?xml version="1.0" encoding="UTF-8"?>
<!-- Generated by Pixelmator Pro 3.4.3 -->
<svg width="24" height="24" viewBox="0 0 24 24" xmlns="http://www.w3.org/2000/svg">
    <path id="Path" fill="#f7df1e" stroke="none" d="M 0 0 L 24 0 L 24 24 L 0 24 L 0 0 Z M 22.034 18.275999 C 21.858999 17.181 21.146 16.261 19.031 15.403 C 18.295 15.058 17.476999 14.818 17.233999 14.263 C 17.143 13.933 17.129 13.753 17.188 13.558 C 17.337999 12.912 18.103001 12.718 18.702999 12.898 C 19.093 13.018 19.452999 13.318 19.679001 13.798 C 20.712999 13.122 20.712999 13.122 21.434 12.673 C 21.164 12.253 21.030001 12.072 20.848 11.893 C 20.218 11.188 19.379 10.828 18.014 10.859 L 17.309 10.948 C 16.632999 11.113 15.989 11.473 15.599 11.953 C 14.459 13.244 14.788 15.494 16.167999 16.424 C 17.533001 17.444 19.528999 17.667999 19.784 18.629 C 20.024 19.799 18.914 20.174 17.818001 20.039 C 17.007 19.858999 16.558001 19.452999 16.063 18.702999 L 14.233 19.754 C 14.443 20.233999 14.683 20.443001 15.043 20.863001 C 16.783001 22.618999 21.132999 22.528999 21.914 19.858999 C 21.943001 19.768999 22.153999 19.153999 21.988001 18.209 L 22.034 18.275999 Z M 13.051 11.031 L 10.803 11.031 C 10.803 12.969 10.794 14.895 10.794 16.836 C 10.794 18.068001 10.857 19.198999 10.656 19.547001 C 10.326 20.236 9.476 20.148001 9.09 20.027 C 8.694 19.830999 8.493 19.561001 8.26 19.172001 C 8.197 19.066999 8.15 18.976 8.133 18.976 L 6.308 20.101 C 6.613 20.731001 7.058 21.273001 7.632 21.618 C 8.487 22.128 9.636 22.292999 10.839 22.023001 C 11.622 21.797001 12.297 21.332001 12.65 20.612 C 13.16 19.681999 13.052 18.542 13.047 17.266001 C 13.059 15.212 13.047 13.157 13.047 11.087 L 13.051 11.031 Z"/>
</svg>
