<?xml version="1.0" encoding="UTF-8"?>
<!-- Generated by Pixelmator Pro 3.4.3 -->
<svg width="24" height="24" viewBox="0 0 24 24" xmlns="http://www.w3.org/2000/svg">
    <path id="Path" fill="#007fff" stroke="none" d="M 20.229 15.793 C 20.330231 15.734792 20.414375 15.65099 20.473 15.55 C 20.531723 15.448831 20.562765 15.333978 20.563 15.217 L 20.575001 11.359 C 20.575235 11.242023 20.606276 11.12717 20.665001 11.026 C 20.7239 10.924883 20.808403 10.841069 20.91 10.783 L 23 9.58 C 23.101381 9.522018 23.216209 9.491673 23.333 9.492 C 23.449972 9.492282 23.564812 9.52332 23.666 9.582 C 23.7672 9.640246 23.851339 9.724039 23.91 9.825 C 23.968374 9.926267 23.999069 10.041113 23.999001 10.158 L 23.999001 17.172001 C 23.998819 17.410734 23.871059 17.63117 23.664 17.75 L 15.771 22.284 C 15.565958 22.401436 15.314042 22.401436 15.109 22.284 L 8.915 18.742001 C 8.812938 18.683756 8.728074 18.599583 8.669 18.497999 C 8.609981 18.396225 8.57893 18.280649 8.579 18.163 L 8.579 14.626 C 8.579 14.622 8.583 14.62 8.587 14.622 C 8.591 14.624 8.595 14.622 8.595 14.617 L 8.595 14.613 C 8.595 14.61 8.597 14.608 8.599 14.606 L 13.701 11.676 C 13.705 11.673 13.703 11.666 13.698 11.666 C 13.696426 11.666 13.694944 11.665259 13.694 11.664 C 13.693107 11.662872 13.692742 11.661415 13.693 11.66 L 13.703 8.193 C 13.703949 7.953964 13.57691 7.732697 13.37 7.612999 C 13.16363 7.493853 12.90937 7.493853 12.703 7.612999 L 8.912 9.799 C 8.706139 9.917379 8.452862 9.917379 8.247 9.799 L 4.443 7.609001 C 4.236822 7.490675 3.98325 7.491024 3.7774 7.609921 C 3.571549 7.728813 3.444535 7.94828 3.444 8.186 L 3.444 14.453 C 3.444082 14.690759 3.317596 14.910585 3.112 15.03 C 3.011124 15.088554 2.896638 15.11959 2.78 15.12 C 2.66321 15.120326 2.548381 15.089981 2.447 15.032 L 0.336 13.825 C 0.233938 13.766757 0.149074 13.682584 0.09 13.581 C 0.03081 13.478931 -0.000246 13.362988 -0 13.245 L 0.019 2.292 C 0.019738 2.05459 0.146615 1.835466 0.352148 1.716637 C 0.55768 1.597805 0.810885 1.597183 1.017 1.715 L 8.247 5.868 C 8.452862 5.98638 8.706139 5.98638 8.912 5.868 L 16.139999 1.715 C 16.241364 1.656975 16.356203 1.626627 16.473 1.627001 C 16.589977 1.627235 16.70483 1.658276 16.806 1.716999 C 16.907328 1.775522 16.991478 1.859673 17.049999 1.961 C 17.107981 2.062382 17.138327 2.17721 17.138 2.294001 L 17.138 13.25 C 17.138 13.367 17.108 13.482 17.049 13.584 C 16.990202 13.685455 16.905695 13.769617 16.804001 13.828 L 13.019 16.007999 C 12.917177 16.06666 12.832659 16.151176 12.774 16.253 C 12.715456 16.354561 12.684755 16.469774 12.685 16.587 C 12.685106 16.704311 12.71615 16.819519 12.775 16.921 C 12.834312 17.022741 12.919541 17.106936 13.022 17.165001 L 15.11 18.354 C 15.210647 18.410999 15.324334 18.440971 15.44 18.441 C 15.556541 18.440847 15.671009 18.410162 15.772 18.351999 L 20.229 15.792 Z M 20.667 5.965 C 20.666883 6.082657 20.697935 6.198244 20.757 6.299999 C 20.816587 6.401871 20.902174 6.486076 21.004999 6.544001 C 21.213566 6.661842 21.469307 6.658789 21.674999 6.535999 L 23.676001 5.336 C 23.774662 5.276829 23.856314 5.19311 23.913 5.093 C 23.969959 4.992701 23.999935 4.879345 24 4.764 L 24 2.32 C 23.999765 2.202259 23.968369 2.086678 23.909 1.985001 C 23.78783 1.777996 23.564842 1.651991 23.325001 1.655001 C 23.207323 1.656319 23.092091 1.688751 22.990999 1.749001 L 20.990999 2.948999 C 20.891972 3.008034 20.809963 3.091766 20.753 3.191999 C 20.696432 3.292412 20.666805 3.40575 20.667 3.521 L 20.667 5.966 Z"/>
</svg>
