<?xml version="1.0" encoding="UTF-8"?>
<!-- Generated by Pixelmator Pro 3.4.3 -->
<svg width="24" height="24" viewBox="0 0 24 24" xmlns="http://www.w3.org/2000/svg">
    <path id="Path" fill="#5fa04e" stroke="none" d="M 11.998 24 C 11.677 24 11.357 23.916 11.076 23.753 L 8.14 22.016001 C 7.702 21.771 7.916 21.684 8.06 21.632999 C 8.645 21.43 8.763 21.382999 9.388 21.028999 C 9.453 20.992001 9.539 21.006001 9.606 21.046 L 11.862 22.385 C 11.944 22.43 12.059 22.43 12.134 22.385 L 20.929001 17.309 C 21.011 17.261999 21.063 17.167999 21.063 17.070999 L 21.063 6.921 C 21.063 6.822001 21.01 6.729 20.926001 6.679001 L 12.135 1.607 C 12.054 1.559999 11.946 1.559999 11.864 1.607 L 3.075 6.68 C 2.99 6.729 2.936 6.825001 2.936 6.921 L 2.936 17.070999 C 2.936 17.167999 2.99 17.26 3.075 17.306 L 5.484 18.698 C 6.791 19.351999 7.592 18.582001 7.592 17.808001 L 7.592 7.787001 C 7.592 7.645 7.706 7.534 7.848 7.534 L 8.963 7.534 C 9.102 7.534 9.218 7.646 9.218 7.787001 L 9.218 17.808001 C 9.218 19.552999 8.268 20.552999 6.614 20.552999 C 6.106 20.552999 5.705 20.552999 4.588 20.002001 L 2.28 18.674999 C 1.71 18.346001 1.358 17.73 1.358 17.070999 L 1.358 6.921 C 1.358 6.262001 1.711 5.646 2.28 5.318001 L 11.075 0.236 C 11.632 -0.079 12.371 -0.079 12.923 0.236 L 21.716999 5.318001 C 22.287001 5.646999 22.641001 6.262001 22.641001 6.921 L 22.641001 17.070999 C 22.641001 17.73 22.287001 18.344 21.716999 18.674999 L 12.923 23.753 C 12.643 23.916 12.324 24 11.998 24 Z M 19.099001 13.993 C 19.099001 12.093 17.815001 11.587 15.112 11.23 C 12.381 10.869 12.103 10.682 12.103 10.043 C 12.103 9.515 12.338 8.81 14.361 8.81 C 16.167999 8.81 16.834 9.199 17.108 10.417 C 17.132 10.532 17.237 10.616 17.355 10.616 L 18.496 10.616 C 18.566999 10.616 18.634001 10.585 18.681999 10.535 C 18.73 10.481 18.756001 10.412 18.749001 10.339 C 18.572001 8.241 17.177999 7.263 14.361 7.263 C 11.853 7.263 10.357 8.321 10.357 10.096 C 10.357 12.021 11.845 12.553 14.252 12.791 C 17.132 13.073 17.355 13.494 17.355 14.06 C 17.355 15.043 16.566 15.462 14.713 15.462 C 12.386 15.462 11.874 14.878 11.702 13.72 C 11.682 13.596 11.576 13.505 11.449 13.505 L 10.312 13.505 C 10.171 13.505 10.058 13.617 10.058 13.758 C 10.058 15.24 10.864 17.006001 14.713 17.006001 C 17.500999 17.007 19.099001 15.91 19.099001 13.993 Z"/>
</svg>
