<?xml version="1.0" encoding="UTF-8"?>
<!-- Generated by Pixelmator Pro 3.4.3 -->
<svg width="24" height="24" viewBox="0 0 24 24" xmlns="http://www.w3.org/2000/svg">
    <path id="Path" fill="#61dafb" stroke="none" d="M 14.23 12.004 C 14.23 13.238519 13.229518 14.239448 11.995 14.24 C 10.760091 14.24 9.759 13.238909 9.759 12.004 C 9.759 10.769482 10.759481 9.768552 11.994 9.768 C 13.228909 9.768 14.23 10.769092 14.23 12.004 Z M 16.878 1.313999 C 15.532 1.313999 13.771 2.274 11.99 3.936001 C 10.21 2.283001 8.448 1.334 7.103 1.334 C 6.693 1.334 6.32 1.427 5.997 1.612 C 4.622 2.405001 4.314 4.875999 5.024 7.977001 C 1.98 8.917 0 10.42 0 12.004 C 0 13.594 1.99 15.101 5.043 16.034 C 4.339 19.146999 4.653 21.622 6.031 22.414 C 6.351 22.601 6.721 22.688999 7.133 22.688999 C 8.478 22.688999 10.24 21.729 12.021 20.065001 C 13.801 21.719 15.563 22.667999 16.908001 22.667999 C 17.318001 22.667999 17.691 22.577999 18.014 22.393 C 19.388 21.601 19.697001 19.129999 18.987 16.028 C 22.02 15.096 24 13.59 24 12.004 C 24 10.414 22.01 8.907 18.957001 7.972 C 19.660999 4.862 19.347 2.385 17.969 1.591999 C 17.650999 1.408001 17.281 1.315001 16.877001 1.313999 Z M 16.872999 2.403999 L 16.872999 2.41 C 17.098 2.41 17.278999 2.454 17.431 2.537001 C 18.097 2.919001 18.386 4.372 18.160999 6.241001 C 18.107 6.701 18.018999 7.186001 17.910999 7.681 C 16.951 7.445 15.905 7.264 14.804 7.146999 C 14.144 6.242001 13.459 5.42 12.769 4.700001 C 14.361 3.219999 15.856 2.408001 16.874001 2.405001 Z M 7.103 2.424 C 8.115 2.424 9.617 3.232 11.213 4.704 C 10.527 5.424 9.843 6.241001 9.193 7.146 C 8.086 7.263 7.039 7.444 6.08 7.684 C 5.968 7.194 5.885 6.719999 5.826 6.264 C 5.596 4.396 5.88 2.944 6.54 2.556999 C 6.73 2.466999 6.94 2.43 7.103 2.424999 Z M 11.985 5.473999 C 12.44 5.941999 12.895 6.466 13.345 7.038 C 12.905 7.018 12.455 7.004 12 7.004 C 11.54 7.004 11.085 7.014 10.64 7.038 C 11.08 6.466 11.535 5.941999 11.985 5.473 Z M 12 8.1 C 12.74 8.1 13.477 8.134 14.202 8.193 C 14.608 8.775 15.004 9.396 15.385 10.053 C 15.757 10.693 16.094999 11.343 16.403 11.999 C 16.094999 12.654 15.757 13.309 15.39 13.949 C 15.01 14.609 14.617 15.237 14.21 15.819 C 13.482 15.882 12.744 15.917 12 15.917 C 11.26 15.917 10.523 15.882 9.798 15.824 C 9.392 15.242 8.996 14.62 8.615 13.964 C 8.243 13.324 7.905 12.674 7.597 12.018 C 7.9 11.361 8.243 10.705 8.61 10.064 C 8.99 9.404 9.383 8.778 9.79 8.196 C 10.518 8.132 11.256 8.098 12 8.098 Z M 8.365 8.354 C 8.125 8.731 7.885 9.117 7.661 9.514 C 7.436 9.904 7.226 10.296 7.026 10.688 C 6.761 10.032 6.536 9.378 6.35 8.741 C 6.99 8.591 7.665 8.458 8.365 8.355 Z M 15.625 8.354 C 16.32 8.457 16.99 8.584 17.631001 8.741 C 17.451 9.373 17.226 10.023 16.971001 10.674 C 16.771 10.284 16.561001 9.891 16.330999 9.5 C 16.106001 9.108 15.866 8.726 15.626 8.354 Z M 18.688 9.029 C 19.172001 9.179 19.632 9.346 20.063 9.527 C 21.795 10.267 22.915001 11.235 22.915001 12.003 C 22.91 12.771 21.790001 13.743 20.058001 14.478 C 19.638 14.658 19.177999 14.82 18.702999 14.971 C 18.423 14.013 18.056999 13.015 17.603001 11.991 C 18.052999 10.974 18.413 9.981 18.688 9.027 Z M 5.293 9.033 C 5.571 9.993 5.938 10.99 6.393 12.013 C 5.943 13.03 5.581 14.023 5.307 14.977 C 4.823 14.827 4.363 14.659 3.937 14.477 C 2.205 13.74 1.085 12.771 1.085 12.003 C 1.085 11.235 2.205 10.261 3.937 9.527 C 4.357 9.347 4.817 9.185 5.293 9.033 Z M 16.971001 13.313 C 17.236 13.97 17.461 14.625 17.646999 15.261 C 17.007 15.418 16.330999 15.551 15.631 15.651 C 15.871 15.276 16.111 14.889 16.336 14.493 C 16.561001 14.103 16.771 13.705 16.972 13.313 Z M 7.026 13.333 C 7.226 13.725 7.436 14.116 7.666 14.508 C 7.896 14.898 8.131 15.28 8.371 15.651 C 7.676 15.549 7.006 15.421 6.365 15.265 C 6.545 14.635 6.771 13.983 7.025 13.332 Z M 17.92 16.32 C 18.032 16.813 18.120001 17.288 18.174 17.743 C 18.403999 19.611 18.120001 21.063 17.459999 21.451 C 17.313 21.541 17.122 21.579 16.896999 21.579 C 15.885 21.579 14.383 20.771999 12.787 19.299 C 13.473 18.579 14.157 17.763 14.807 16.858999 C 15.914 16.740999 16.961 16.559 17.92 16.319 Z M 6.09 16.33 C 7.05 16.563999 8.096 16.745001 9.197 16.862 C 9.857 17.767 10.542 18.589001 11.232 19.308001 C 9.637 20.791 8.14 21.603001 7.122 21.603001 C 6.902 21.598 6.716 21.552999 6.569 21.471001 C 5.903 21.091 5.614 19.636999 5.839 17.768 C 5.893 17.308001 5.981 16.823999 6.089 16.33 Z M 10.65 16.969999 C 11.09 16.99 11.54 17.004 11.995 17.004 C 12.455 17.004 12.91 16.993999 13.355 16.969999 C 12.915 17.542 12.46 18.065001 12.01 18.535 C 11.555 18.065001 11.1 17.542 10.65 16.969999 Z"/>
</svg>
