<?xml version="1.0" encoding="UTF-8"?>
<!-- Generated by Pixelmator Pro 3.4.3 -->
<svg width="24" height="24" viewBox="0 0 24 24" xmlns="http://www.w3.org/2000/svg">
    <path id="Path" fill="#cc6699" stroke="none" d="M 12 0 C 18.627001 0 24 5.373001 24 12 C 24 18.627001 18.627001 24 12 24 C 5.373 24 0 18.627001 0 12 C 0 5.373001 5.373 0 12 0 Z M 9.615 15.998 C 9.79 16.643 9.771 17.246 9.591 17.790001 L 9.526 17.969999 C 9.502 18.031 9.474 18.09 9.448 18.146 C 9.308 18.436001 9.122 18.705999 8.893 18.955999 C 8.195 19.715 7.221 20.003 6.803 19.761 C 6.353 19.499001 6.577 18.426001 7.387 17.570999 C 8.258 16.653 9.507 16.062 9.507 16.062 L 9.507 16.059 L 9.615 15.998 Z M 19.525999 5.137001 C 18.983999 3.004 15.449 2.302999 12.104 3.492001 C 10.115 4.198999 7.96 5.309999 6.411 6.758999 C 4.568 8.48 4.275 9.98 4.396 10.607 C 4.823 12.818 7.853 14.264 9.099 15.337 L 9.099 15.343 C 8.732 15.523 6.043 16.872 5.413 18.268 C 4.738 19.738001 5.518 20.789 6.028 20.923 C 7.603 21.358999 9.223 20.563 10.093 19.274 C 10.933 18.013 10.859 16.393 10.497 15.598 C 10.993 15.463 11.577 15.403 12.327 15.494 C 14.428 15.734 14.848 17.054001 14.757 17.594 C 14.667 18.132999 14.234 18.448 14.083 18.538 C 13.933 18.629 13.888 18.658001 13.902 18.719 C 13.917 18.809 13.993 18.809 14.112 18.794001 C 14.277 18.764 15.208 18.344 15.253 17.323 C 15.298 16.033001 14.067 14.594 11.878 14.623 C 10.978 14.639 10.407 14.714 10.003 14.879 C 9.973 14.834 9.942 14.804 9.898 14.774 C 8.548 13.319 6.043 12.299 6.148 10.364 C 6.178 9.659 6.433 7.799999 10.948 5.549999 C 14.653 3.704 17.608999 4.215 18.118999 5.34 C 18.851999 6.944 16.542999 9.93 12.688 10.364 C 11.218 10.529 10.453 9.96 10.257 9.749 C 10.048 9.524 10.018 9.509 9.943 9.555 C 9.823 9.615 9.898 9.81 9.943 9.93 C 10.063 10.23 10.528 10.755 11.339 11.025 C 12.043 11.25 13.769 11.384 15.839 10.575 C 18.163 9.676 19.978001 7.17 19.452999 5.07 L 19.525999 5.137001 Z"/>
</svg>
