<?xml version="1.0" encoding="UTF-8"?>
<!-- Generated by Pixelmator Pro 3.4.3 -->
<svg width="24" height="24" viewBox="0 0 24 24" xmlns="http://www.w3.org/2000/svg">
    <path id="Path" fill="#06b6d4" stroke="none" d="M 12.001 4.799999 C 8.801 4.799999 6.801 6.4 6.001 9.6 C 7.201 8 8.601 7.4 10.201 7.799999 C 11.114 8.028 11.766 8.69 12.489 9.424 C 13.666 10.618 15.027 12 18.000999 12 C 21.201 12 23.201 10.4 24.000999 7.200001 C 22.801001 8.8 21.400999 9.4 19.801001 9 C 18.888 8.772 18.236 8.11 17.513 7.375999 C 16.337 6.181999 14.976 4.799999 12.001 4.799999 Z M 6.001 12 C 2.801 12 0.801 13.6 0.001 16.799999 C 1.201 15.2 2.601 14.6 4.201 15 C 5.114 15.228 5.766 15.89 6.489 16.624001 C 7.666 17.818001 9.027 19.200001 12.001 19.200001 C 15.201 19.200001 17.201 17.6 18.000999 14.4 C 16.801001 16 15.401 16.6 13.801 16.200001 C 12.888 15.972 12.236 15.31 11.513 14.576 C 10.337 13.382 8.976 12 6.001 12 Z"/>
</svg>
