<?xml version="1.0" encoding="UTF-8"?>
<!-- Generated by Pixelmator Pro 3.4.3 -->
<svg width="24" height="24" viewBox="0 0 24 24" xmlns="http://www.w3.org/2000/svg">
    <path id="Path" fill="#3178c6" stroke="none" d="M 1.125 0 C 0.502 0 0 0.502001 0 1.125 L 0 22.875 C 0 23.497999 0.502 24 1.125 24 L 22.875 24 C 23.497999 24 24 23.497999 24 22.875 L 24 1.125 C 24 0.502001 23.497999 0 22.875 0 Z M 18.488001 9.75 C 19.1 9.75 19.642 9.787 20.115 9.861 C 20.561129 9.927843 20.998911 10.041814 21.421 10.201 L 21.421 12.659 C 21.218393 12.51888 21.00312 12.39802 20.778 12.298 C 20.545834 12.193535 20.306162 12.106625 20.061001 12.038 C 19.596598 11.90859 19.117085 11.841338 18.635 11.838 C 18.334999 11.838 18.062 11.866 17.816 11.924 C 17.596746 11.970891 17.386415 12.052592 17.193001 12.166 C 17.023001 12.27 16.893 12.395 16.799999 12.54 C 16.706463 12.686147 16.657791 12.856497 16.66 13.03 C 16.66 13.226 16.712999 13.403 16.816 13.559 C 16.92 13.715 17.068001 13.863 17.259001 14.003 C 17.450001 14.143 17.681999 14.279 17.955 14.413 C 18.228001 14.548 18.537001 14.687 18.881001 14.829 C 19.351 15.026 19.773001 15.236 20.146999 15.457 C 20.521 15.679 20.841999 15.93 21.110001 16.209999 C 21.378 16.489 21.582001 16.808001 21.724001 17.167 C 21.865999 17.525999 21.938 17.943001 21.938 18.42 C 21.938 19.077 21.813 19.629999 21.565001 20.076 C 21.322695 20.515871 20.974957 20.888693 20.552999 21.160999 C 20.098188 21.449394 19.594091 21.65144 19.066 21.757 C 18.5 21.877001 17.903 21.937 17.275999 21.937 C 16.658899 21.939707 16.042894 21.884802 15.436 21.773001 C 14.910927 21.682184 14.401689 21.516144 13.924 21.280001 L 13.924 18.65 C 14.82778 19.419121 15.974269 19.844141 17.160999 19.85 C 17.493999 19.85 17.785 19.82 18.033001 19.76 C 18.282 19.700001 18.489 19.615999 18.656 19.51 C 18.822001 19.402 18.945999 19.275999 19.028999 19.129999 C 19.216227 18.783066 19.187439 18.359419 18.955 18.041 C 18.806421 17.844389 18.624701 17.675188 18.417999 17.541 C 18.161655 17.37108 17.891741 17.222576 17.611 17.097 C 17.278244 16.945036 16.942511 16.799675 16.604 16.660999 C 15.686 16.278 15.002 15.809 14.551 15.256 C 14.101 14.703 13.875 14.034 13.875 13.251 C 13.875 12.637 13.998 12.11 14.244 11.669 C 14.49 11.228 14.824 10.865 15.248 10.58 C 15.696463 10.28415 16.194342 10.071112 16.718 9.951 C 17.297977 9.814258 17.892128 9.746786 18.488001 9.75 Z M 3.375 9.938 L 12.938 9.938 L 12.938 12.104 L 9.506 12.104 L 9.506 21.75 L 6.789 21.75 L 6.789 12.104 L 3.375 12.104 Z"/>
</svg>
